<?xml version="1.0" encoding="UTF-8" standalone="no"?><svg xmlns="http://www.w3.org/2000/svg" xmlns:xlink="http://www.w3.org/1999/xlink" contentStyleType="text/css" height="299px" preserveAspectRatio="none" style="width:741px;height:299px;background:#FFFFFF;" version="1.1" viewBox="0 0 741 299" width="741px" zoomAndPan="magnify"><defs/><g><ellipse cx="317.5" cy="16" fill="#222222" rx="10" ry="10" style="stroke:none;stroke-width:1.0;"/><g id="Ecoute"><rect fill="#F1F1F1" height="72.8281" rx="12.5" ry="12.5" style="stroke:#181818;stroke-width:0.5;" width="151" x="242" y="87"/><line style="stroke:#181818;stroke-width:0.5;" x1="242" x2="393" y1="114.6094" y2="114.6094"/><text fill="#000000" font-family="sans-serif" font-size="14" lengthAdjust="spacing" textLength="44" x="295.5" y="106.5332">Ecoute</text><text fill="#000000" font-family="sans-serif" font-size="14" lengthAdjust="spacing" textLength="131" x="247" y="134.1426">conn_active := False</text><text fill="#000000" font-family="sans-serif" font-size="14" lengthAdjust="spacing" textLength="56" x="247" y="151.752">Msg := ""</text></g><g id="Connecte"><rect fill="#F1F1F1" height="55.2188" rx="12.5" ry="12.5" style="stroke:#181818;stroke-width:0.5;" width="146" x="199.5" y="238"/><line style="stroke:#181818;stroke-width:0.5;" x1="199.5" x2="345.5" y1="265.6094" y2="265.6094"/><text fill="#000000" font-family="sans-serif" font-size="14" lengthAdjust="spacing" textLength="61" x="242" y="257.5332">Connecte</text><text fill="#000000" font-family="sans-serif" font-size="14" lengthAdjust="spacing" textLength="126" x="204.5" y="285.1426">conn_active := True</text></g><g id="Transmet"><rect fill="#F1F1F1" height="55.2188" rx="12.5" ry="12.5" style="stroke:#181818;stroke-width:0.5;" width="80" x="548.5" y="238"/><line style="stroke:#181818;stroke-width:0.5;" x1="548.5" x2="628.5" y1="265.6094" y2="265.6094"/><text fill="#000000" font-family="sans-serif" font-size="14" lengthAdjust="spacing" textLength="60" x="558.5" y="257.5332">Transmet</text><text fill="#000000" font-family="sans-serif" font-size="14" lengthAdjust="spacing" textLength="56" x="553.5" y="285.1426">Msg := ""</text></g><g id="Deconnecte"><rect fill="#F1F1F1" height="55.2188" rx="12.5" ry="12.5" style="stroke:#181818;stroke-width:0.5;" width="151" x="7" y="238"/><line style="stroke:#181818;stroke-width:0.5;" x1="7" x2="158" y1="265.6094" y2="265.6094"/><text fill="#000000" font-family="sans-serif" font-size="14" lengthAdjust="spacing" textLength="76" x="44.5" y="257.5332">Deconnecte</text><text fill="#000000" font-family="sans-serif" font-size="14" lengthAdjust="spacing" textLength="131" x="12" y="285.1426">conn_active := False</text></g><!--MD5=[e4d1be4f73fe79e189fab52b03b20a95]
link *start to Ecoute--><g id="link_*start_Ecoute"><path d="M317.5,26.36 C317.5,38.73 317.5,61.3 317.5,81.47 " fill="none" id="*start-to-Ecoute" style="stroke:#181818;stroke-width:1.0;"/><polygon fill="#181818" points="317.5,86.54,321.5,77.54,317.5,81.54,313.5,77.54,317.5,86.54" style="stroke:#181818;stroke-width:1.0;"/></g><!--MD5=[a208b585869fe7e29d328b3a5fd052e3]
link Ecoute to Connecte--><g id="link_Ecoute_Connecte"><path d="M264.56,160.17 C255.61,168.81 247.58,178.83 242.5,190 C236.13,204.03 240.85,219.83 248.27,233.26 " fill="none" id="Ecoute-to-Connecte" style="stroke:#181818;stroke-width:1.0;"/><polygon fill="#181818" points="250.88,237.71,249.7801,227.9227,248.3518,233.3963,242.8782,231.9679,250.88,237.71" style="stroke:#181818;stroke-width:1.0;"/><text fill="#000000" font-family="sans-serif" font-size="13" lengthAdjust="spacing" textLength="120" x="243.5" y="204.4951">conn_active := False</text></g><!--MD5=[1b94f4b69c09f1f6104b75a4ac0eb656]
link Connecte to Ecoute--><g id="link_Connecte_Ecoute"><path d="M338.79,237.95 C350.68,230.12 361.49,220.26 368.5,208 C376.68,193.7 371.34,178.25 361.56,164.58 " fill="none" id="Connecte-to-Ecoute" style="stroke:#181818;stroke-width:1.0;"/><polygon fill="#181818" points="358.39,160.4,360.6284,169.9911,361.406,164.388,367.0091,165.1655,358.39,160.4" style="stroke:#181818;stroke-width:1.0;"/></g><!--MD5=[41ce3d7903c3df0ccaa92486597fd325]
link Ecoute to Transmet--><g id="link_Ecoute_Transmet"><path d="M366.85,160.04 C390.06,175.87 418.51,194.05 445.5,208 C477.22,224.4 514.83,239.09 543.52,249.37 " fill="none" id="Ecoute-to-Transmet" style="stroke:#181818;stroke-width:1.0;"/><polygon fill="#181818" points="548.41,251.11,541.2705,244.3256,543.699,249.4347,538.59,251.8632,548.41,251.11" style="stroke:#181818;stroke-width:1.0;"/><text fill="#000000" font-family="sans-serif" font-size="13" lengthAdjust="spacing" textLength="256" x="446.5" y="204.4951">conn_active = True ET Other_present = True</text></g><!--MD5=[6611432590a30ce3e204a8e75260653a]
link Transmet to Ecoute--><g id="link_Transmet_Ecoute"><path d="M628.83,255.64 C673.01,244.11 734.26,221.63 707.5,190 C668.69,144.13 500.61,130.36 398.19,126.25 " fill="none" id="Transmet-to-Ecoute" style="stroke:#181818;stroke-width:1.0;"/><polygon fill="#181818" points="393.06,126.04,401.8929,130.3965,398.056,126.2398,402.2127,122.4029,393.06,126.04" style="stroke:#181818;stroke-width:1.0;"/></g><!--MD5=[8178be604117749d44ea0a2e9821df83]
link Ecoute to Deconnecte--><g id="link_Ecoute_Deconnecte"><path d="M241.86,132.39 C170.32,141.59 70.45,159.57 46.5,190 C36.27,202.99 42.52,219.36 52.49,233.44 " fill="none" id="Ecoute-to-Deconnecte" style="stroke:#181818;stroke-width:1.0;"/><polygon fill="#181818" points="55.69,237.73,53.5284,228.1213,52.706,233.718,47.1093,232.8957,55.69,237.73" style="stroke:#181818;stroke-width:1.0;"/><text fill="#000000" font-family="sans-serif" font-size="13" lengthAdjust="spacing" textLength="113" x="47.5" y="204.4951">conn_active := True</text></g><!--MD5=[1d169fcee51d28b57506faadbdea5506]
link Deconnecte to Ecoute--><g id="link_Deconnecte_Ecoute"><path d="M127.2,237.87 C162.95,216.57 213.53,186.44 253.56,162.59 " fill="none" id="Deconnecte-to-Ecoute" style="stroke:#181818;stroke-width:1.0;"/><polygon fill="#181818" points="257.9,160.01,248.1228,161.1961,253.6088,162.5762,252.2287,168.0621,257.9,160.01" style="stroke:#181818;stroke-width:1.0;"/></g><!--MD5=[6c247319ad46dfb521197f5c7c72a5e7]
@startuml state_diagram
    [*] - -> Ecoute
    Ecoute : conn_active := False
    Ecoute : Msg := ""
    
    Ecoute - -> Connecte : conn_active := False
    Connecte : conn_active := True
    Connecte - -> Ecoute 

    Ecoute - -> Transmet : conn_active = True ET Other_present = True

    Ecoute -> Deconnecte : conn_active := True
    Deconnecte : conn_active := False
    Deconnecte - -> Ecoute

    Transmet - -> Ecoute
    Transmet : Msg := ""
@enduml

PlantUML version 1.2022.7(Mon Aug 22 13:01:30 EDT 2022)
(GPL source distribution)
Java Runtime: Java(TM) SE Runtime Environment
JVM: Java HotSpot(TM) 64-Bit Server VM
Default Encoding: UTF-8
Language: fr
Country: FR
--></g></svg>